# xmcd CD database file
#
# Track frame offsets:
#	150
#	31592
#	58408
#	85661
#	110230
#	136106
#	161457
#	184678
#	208912
#	241051
#	267564
#	294151
#	319202
#	345668
#
# Disc length: 4781 seconds
#
# Revision: 0
# Processed by: cddbd v1.5.2PL0 Copyright (c) Steve Scherf et al.
# Submitted via: CDex 1.51
#
DISCID=c912ab0e
DTITLE=Karunesh - Greatest Hits [CD2)
DYEAR=2008
DGENRE=New Age
TTITLE0=Monsoon's Dance
TTITLE1=Zen Breakfast
TTITLE2=Beyond The Horizon
TTITLE3=Arabian Nights
TTITLE4=Insallah
TTITLE5=Bombay Pure
TTITLE6=Windrider
TTITLE7=Follow Your Heart
TTITLE8=Beyond Time
TTITLE9=Return Of The Rains
TTITLE10=Sahara Sunset
TTITLE11=Heart
TTITLE12=Japanese Spring
TTITLE13=Sounds Of The Heart II
EXTD=YEAR: 2008
EXTT0=
EXTT1=
EXTT2=
EXTT3=
EXTT4=
EXTT5=
EXTT6=
EXTT7=
EXTT8=
EXTT9=
EXTT10=
EXTT11=
EXTT12=
EXTT13=
PLAYORDER=
